<?xml version="1.0" encoding="UTF-8"?>
<svg width="126.8mm" height="127.49mm" version="1.1" viewBox="0 0 126.8 127.49" xml:space="preserve" xmlns="http://www.w3.org/2000/svg"><g transform="translate(-42.216 -29.89)"><path d="m89.561 155.32c-47.359-12.383-63.372-71.871-28.683-106.56 40.16-40.16 108.14-12.013 108.14 44.775 0 41.506-39.51 72.228-79.455 61.784zm31.681-6.8301c11.878-3.1697 21.738-9.7931 20.948-14.073-7.1782-38.918-65.897-38.918-73.075 0-0.83543 4.5295 10.828 11.959 22.457 14.305 3.0424 0.61385 6.4369 1.3224 7.5432 1.5745 3.2554 0.74191 16.684-0.35489 22.127-1.8072zm-55.344-24.53c3.5481-8.2076 12.755-18.001 19.891-21.158 5.6883-2.5162 5.7111-2.6249 1.4191-6.7932-16.793-16.309-5.0824-44.671 18.445-44.671 23.661 0 35.231 28.368 18.284 44.827-1.9356 1.8798-3.3337 3.5856-3.1068 3.7906 0.22687 0.20497 2.2762 1.3122 4.5541 2.4605 7.5721 3.8171 15.116 11.732 19.185 20.127 2.0528 4.2362 3.856 7.8794 4.0071 8.0961 0.5257 0.75389 4.284-4.4549 7.4455-10.319 15.253-28.292 3.5913-64.187-25.365-78.075-52.928-25.384-104.56 34.708-71.932 83.723 3.9855 5.9878 3.6802 6.0733 7.1744-2.0096zm48.909-29.202c7.326-3.8271 11.414-11.173 10.625-19.093-2.3931-24.031-37.154-24.111-39.548-0.091-1.0985 11.024 8.7576 21.984 19.769 21.984 2.1955 0 6.0513-1.1796 9.1539-2.8004z" stroke-width="1.0058"/></g></svg>
