<?xml version="1.0" encoding="UTF-8"?>
<svg width="14.787mm" height="4.0961mm" version="1.1" viewBox="0 0 14.787 4.0961" xmlns="http://www.w3.org/2000/svg">
 <g transform="translate(-51.461 -83.091)" fill="#2d5016">
  <g stroke-width=".26458" aria-label="Hikerz">
   <path d="m51.461 83.254h0.52452v1.5813h1.4289v-1.5813h0.52452v3.8576h-0.52452v-1.8371h-1.4289v1.8371h-0.52452z"/>
   <path d="m54.79 83.693c-0.05167 0-0.07751-0.02584-0.07751-0.07752v-0.447c0-0.05167 0.02584-0.07751 0.07751-0.07751h0.37207c0.05167 0 0.07751 0.02584 0.07751 0.07751v0.447c0 0.05168-0.02584 0.07752-0.07751 0.07752zm0.86816 3.4391c-0.2841 0.0084-0.50471-0.0913-0.66146-0.27388-0.15503-0.18431-0.23254-0.4427-0.23254-0.77515v-1.4934h-0.90123v-0.37207h1.3767v1.8655c0 0.21015 0.03962 0.37035 0.11886 0.48059s0.19465 0.16536 0.34623 0.16536h0.78844v0.37835z"/>
   <path d="m56.354 83.091h0.49093v2.328l1.248-1.2015h0.57878l-1.1395 1.0904 1.3178 1.8035h-0.58136l-1.0697-1.4934-0.35398 0.33331v1.1601h-0.49093z"/>
   <path d="m59.853 87.187q-0.66921 0-1.0516-0.40049-0.37982-0.40308-0.37982-1.0981 0-0.4315 0.14986-0.78032 0.15245-0.34882 0.44958-0.55294 0.29972-0.20671 0.73897-0.20671 0.57878 0 0.89659 0.37207 0.32039 0.36949 0.32039 1.0258v0.23254h-2.0593v0.0155q0 0.45217 0.23771 0.72089t0.7028 0.26872q0.26872 0 0.51935-0.08527 0.25322-0.08527 0.48834-0.2067v0.47284q-0.24546 0.10077-0.49868 0.1602-0.25063 0.06201-0.51418 0.06201zm0.64854-1.7803q0-0.2403-0.07235-0.43408-0.07235-0.19379-0.23254-0.30748-0.15761-0.11369-0.41858-0.11369-0.26355 0-0.44183 0.11627-0.1757 0.11369-0.27647 0.30748-0.09819 0.19379-0.12402 0.4315z"/>
   <path d="m61.213 84.218h0.4315l0.04651 0.56586c0.08096-0.20498 0.2024-0.36174 0.36432-0.47026 0.16364-0.11024 0.35915-0.16536 0.58653-0.16536 0.23771 0 0.39622-0.01448 0.62012 0.06622l0.0035 0.37271c-0.18604-0.15158-0.53192-0.10872-0.66951-0.09492-0.18187 0.01825-0.51305 0.18911-0.66981 0.37687-0.15675 0.18604-0.23513 0.45389-0.23513 0.80357v1.4392h-0.47801z"/>
   <path d="m63.288 86.672 1.6614-2.08h-1.5994v-0.37982h2.1006v0.43408l-1.6614 2.0774h1.6614v0.38757h-2.1627z"/>
  </g>
  <g stroke-width=".069054" aria-label="™">
   <path d="m65.784 86.722v0.06339h-0.10924v0.32639h-0.07688v-0.32639h-0.10924v-0.06339zm0.17128 0 0.09239 0.17263 0.08429-0.17263h0.11599v0.38978h-0.07688v-0.32504l-0.1052 0.20298h-0.03709l-0.11194-0.20298v0.32504h-0.0762v-0.38978z"/>
  </g>
 </g>
</svg>
